<?xml version="1.0" encoding="UTF-8" standalone="no"?>
<!DOCTYPE svg PUBLIC "-//W3C//DTD SVG 1.1//EN"
 "http://www.w3.org/Graphics/SVG/1.1/DTD/svg11.dtd">
<!-- Generated by graphviz version 2.47.0 (20210316.0004)
 -->
<!-- Title: dependencies Pages: 1 -->
<svg width="658pt" height="284pt"
 viewBox="0.00 0.00 658.00 284.00" xmlns="http://www.w3.org/2000/svg" xmlns:xlink="http://www.w3.org/1999/xlink">
<g id="graph0" class="graph" transform="scale(1 1) rotate(0) translate(4 280)">
<title>dependencies</title>
<polygon fill="white" stroke="transparent" points="-4,4 -4,-280 654,-280 654,4 -4,4"/>
<text text-anchor="start" x="304.01" y="-42.4" font-family="Times-12" font-weight="bold" font-size="14.00">Legend</text>
<polygon fill="#ffffb3" stroke="transparent" points="91,-10 91,-30 111,-30 111,-10 91,-10"/>
<text text-anchor="start" x="114.63" y="-15.4" font-family="Times-12" font-size="14.00"> &#160;Declarations</text>
<polygon fill="#8dd3c7" stroke="transparent" points="204,-10 204,-30 224,-30 224,-10 204,-10"/>
<text text-anchor="start" x="227.73" y="-15.4" font-family="Times-12" font-size="14.00"> &#160;Module</text>
<polygon fill="#80b1d3" stroke="transparent" points="290,-10 290,-30 310,-30 310,-10 290,-10"/>
<text text-anchor="start" x="313.78" y="-15.4" font-family="Times-12" font-size="14.00"> &#160;Bootstrap</text>
<polygon fill="#fdb462" stroke="transparent" points="387,-10 387,-30 407,-30 407,-10 387,-10"/>
<text text-anchor="start" x="410.67" y="-15.4" font-family="Times-12" font-size="14.00"> &#160;Providers</text>
<polygon fill="#fb8072" stroke="transparent" points="483,-10 483,-30 503,-30 503,-10 483,-10"/>
<text text-anchor="start" x="506.73" y="-15.4" font-family="Times-12" font-size="14.00"> &#160;Exports</text>
<g id="clust1" class="cluster">
<title>cluster_CoreModule</title>
<polygon fill="none" stroke="black" stroke-dasharray="1,5" points="8,-70 8,-268 642,-268 642,-70 8,-70"/>
</g>
<g id="clust2" class="cluster">
<title>cluster_CoreModule_declarations</title>
<polygon fill="none" stroke="black" points="340,-78 340,-130 634,-130 634,-78 340,-78"/>
</g>
<g id="clust8" class="cluster">
<title>cluster_CoreModule_providers</title>
<polygon fill="none" stroke="black" points="138,-78 138,-130 332,-130 332,-78 138,-78"/>
</g>
<g id="clust5" class="cluster">
<title>cluster_CoreModule_imports</title>
<polygon fill="none" stroke="black" points="16,-78 16,-130 130,-130 130,-78 16,-78"/>
</g>
<g id="clust7" class="cluster">
<title>cluster_CoreModule_bootstrap</title>
<polygon fill="none" stroke="black" points="268,-208 268,-260 392,-260 392,-208 268,-208"/>
</g>
<!-- AppComponent -->
<g id="node1" class="node">
<title>AppComponent</title>
<polygon fill="#ffffb3" stroke="black" points="625.94,-122 520.06,-122 520.06,-86 625.94,-86 625.94,-122"/>
<text text-anchor="middle" x="573" y="-99.8" font-family="Times,serif" font-size="14.00">AppComponent</text>
</g>
<!-- CoreModule -->
<g id="node3" class="node">
<title>CoreModule</title>
<polygon fill="#8dd3c7" stroke="black" points="373.26,-187 370.26,-191 349.26,-191 346.26,-187 286.74,-187 286.74,-151 373.26,-151 373.26,-187"/>
<text text-anchor="middle" x="330" y="-164.8" font-family="Times,serif" font-size="14.00">CoreModule</text>
</g>
<!-- AppComponent&#45;&gt;CoreModule -->
<g id="edge1" class="edge">
<title>AppComponent&#45;&gt;CoreModule</title>
<path fill="none" stroke="black" d="M573,-122.11C573,-141.34 573,-169 573,-169 573,-169 383.44,-169 383.44,-169"/>
<polygon fill="black" stroke="black" points="383.44,-165.5 373.44,-169 383.44,-172.5 383.44,-165.5"/>
</g>
<!-- SneakersListComponent -->
<g id="node2" class="node">
<title>SneakersListComponent</title>
<polygon fill="#ffffb3" stroke="black" points="501.64,-122 348.36,-122 348.36,-86 501.64,-86 501.64,-122"/>
<text text-anchor="middle" x="425" y="-99.8" font-family="Times,serif" font-size="14.00">SneakersListComponent</text>
</g>
<!-- SneakersListComponent&#45;&gt;CoreModule -->
<g id="edge2" class="edge">
<title>SneakersListComponent&#45;&gt;CoreModule</title>
<path fill="none" stroke="black" d="M360.78,-122.11C360.78,-122.11 360.78,-140.99 360.78,-140.99"/>
<polygon fill="black" stroke="black" points="357.28,-140.99 360.78,-150.99 364.28,-140.99 357.28,-140.99"/>
</g>
<!-- AppComponent  -->
<g id="node5" class="node">
<title>AppComponent </title>
<polygon fill="#80b1d3" stroke="black" points="384.44,-252 275.56,-252 275.56,-216 384.44,-216 384.44,-252"/>
<text text-anchor="middle" x="330" y="-229.8" font-family="Times,serif" font-size="14.00">AppComponent </text>
</g>
<!-- CoreModule&#45;&gt;AppComponent  -->
<g id="edge4" class="edge">
<title>CoreModule&#45;&gt;AppComponent </title>
<path fill="none" stroke="black" stroke-dasharray="1,5" d="M330,-187.11C330,-187.11 330,-205.99 330,-205.99"/>
<polygon fill="black" stroke="black" points="326.5,-205.99 330,-215.99 333.5,-205.99 326.5,-205.99"/>
</g>
<!-- SharedModule -->
<g id="node4" class="node">
<title>SharedModule</title>
<polygon fill="#8dd3c7" stroke="black" points="122.42,-122 119.42,-126 98.42,-126 95.42,-122 23.58,-122 23.58,-86 122.42,-86 122.42,-122"/>
<text text-anchor="middle" x="73" y="-99.8" font-family="Times,serif" font-size="14.00">SharedModule</text>
</g>
<!-- SharedModule&#45;&gt;CoreModule -->
<g id="edge3" class="edge">
<title>SharedModule&#45;&gt;CoreModule</title>
<path fill="none" stroke="black" d="M73,-122.11C73,-141.34 73,-169 73,-169 73,-169 276.69,-169 276.69,-169"/>
<polygon fill="black" stroke="black" points="276.69,-172.5 286.69,-169 276.69,-165.5 276.69,-172.5"/>
</g>
<!-- SneakersApiService -->
<g id="node6" class="node">
<title>SneakersApiService</title>
<ellipse fill="#fdb462" stroke="black" cx="235" cy="-104" rx="89.16" ry="18"/>
<text text-anchor="middle" x="235" y="-99.8" font-family="Times,serif" font-size="14.00">SneakersApiService</text>
</g>
<!-- SneakersApiService&#45;&gt;CoreModule -->
<g id="edge5" class="edge">
<title>SneakersApiService&#45;&gt;CoreModule</title>
<path fill="none" stroke="black" d="M305.48,-115.32C305.48,-115.32 305.48,-140.94 305.48,-140.94"/>
<polygon fill="black" stroke="black" points="301.98,-140.94 305.48,-150.94 308.98,-140.94 301.98,-140.94"/>
</g>
</g>
</svg>
