<?xml version="1.0" encoding="UTF-8" standalone="no"?>
<!DOCTYPE svg PUBLIC "-//W3C//DTD SVG 1.1//EN"
 "http://www.w3.org/Graphics/SVG/1.1/DTD/svg11.dtd">
<!-- Generated by graphviz version 2.47.0 (20210316.0004)
 -->
<!-- Title: dependencies Pages: 1 -->
<svg width="1193pt" height="284pt"
 viewBox="0.00 0.00 1193.00 284.00" xmlns="http://www.w3.org/2000/svg" xmlns:xlink="http://www.w3.org/1999/xlink">
<g id="graph0" class="graph" transform="scale(1 1) rotate(0) translate(4 280)">
<title>dependencies</title>
<polygon fill="white" stroke="transparent" points="-4,4 -4,-280 1189,-280 1189,4 -4,4"/>
<text text-anchor="start" x="571.51" y="-42.4" font-family="Times-12" font-weight="bold" font-size="14.00">Legend</text>
<polygon fill="#ffffb3" stroke="transparent" points="358.5,-10 358.5,-30 378.5,-30 378.5,-10 358.5,-10"/>
<text text-anchor="start" x="382.13" y="-15.4" font-family="Times-12" font-size="14.00"> &#160;Declarations</text>
<polygon fill="#8dd3c7" stroke="transparent" points="471.5,-10 471.5,-30 491.5,-30 491.5,-10 471.5,-10"/>
<text text-anchor="start" x="495.23" y="-15.4" font-family="Times-12" font-size="14.00"> &#160;Module</text>
<polygon fill="#80b1d3" stroke="transparent" points="557.5,-10 557.5,-30 577.5,-30 577.5,-10 557.5,-10"/>
<text text-anchor="start" x="581.28" y="-15.4" font-family="Times-12" font-size="14.00"> &#160;Bootstrap</text>
<polygon fill="#fdb462" stroke="transparent" points="654.5,-10 654.5,-30 674.5,-30 674.5,-10 654.5,-10"/>
<text text-anchor="start" x="678.17" y="-15.4" font-family="Times-12" font-size="14.00"> &#160;Providers</text>
<polygon fill="#fb8072" stroke="transparent" points="750.5,-10 750.5,-30 770.5,-30 770.5,-10 750.5,-10"/>
<text text-anchor="start" x="774.23" y="-15.4" font-family="Times-12" font-size="14.00"> &#160;Exports</text>
<g id="clust1" class="cluster">
<title>cluster_SharedModule</title>
<polygon fill="none" stroke="black" stroke-dasharray="1,5" points="8,-70 8,-268 1177,-268 1177,-70 8,-70"/>
</g>
<g id="clust12" class="cluster">
<title>cluster_SharedModule_exports</title>
<polygon fill="none" stroke="black" points="16,-208 16,-260 1169,-260 1169,-208 16,-208"/>
</g>
<g id="clust2" class="cluster">
<title>cluster_SharedModule_declarations</title>
<polygon fill="none" stroke="black" points="34,-78 34,-130 1157,-130 1157,-78 34,-78"/>
</g>
<!-- AboutComponent -->
<g id="node1" class="node">
<title>AboutComponent</title>
<polygon fill="#ffffb3" stroke="black" points="1149.33,-122 1032.67,-122 1032.67,-86 1149.33,-86 1149.33,-122"/>
<text text-anchor="middle" x="1091" y="-99.8" font-family="Times,serif" font-size="14.00">AboutComponent</text>
</g>
<!-- SharedModule -->
<g id="node9" class="node">
<title>SharedModule</title>
<polygon fill="#8dd3c7" stroke="black" points="577.42,-187 574.42,-191 553.42,-191 550.42,-187 478.58,-187 478.58,-151 577.42,-151 577.42,-187"/>
<text text-anchor="middle" x="528" y="-164.8" font-family="Times,serif" font-size="14.00">SharedModule</text>
</g>
<!-- AboutComponent&#45;&gt;SharedModule -->
<g id="edge1" class="edge">
<title>AboutComponent&#45;&gt;SharedModule</title>
<path fill="none" stroke="black" d="M1036.96,-122.22C1036.96,-140.83 1036.96,-167 1036.96,-167 1036.96,-167 587.26,-167 587.26,-167"/>
<polygon fill="black" stroke="black" points="587.26,-163.5 577.26,-167 587.26,-170.5 587.26,-163.5"/>
</g>
<!-- CartViewComponent -->
<g id="node2" class="node">
<title>CartViewComponent</title>
<polygon fill="#ffffb3" stroke="black" points="1014.75,-122 879.25,-122 879.25,-86 1014.75,-86 1014.75,-122"/>
<text text-anchor="middle" x="947" y="-99.8" font-family="Times,serif" font-size="14.00">CartViewComponent</text>
</g>
<!-- CartViewComponent&#45;&gt;SharedModule -->
<g id="edge2" class="edge">
<title>CartViewComponent&#45;&gt;SharedModule</title>
<path fill="none" stroke="black" d="M971.04,-122.02C971.04,-139.37 971.04,-163 971.04,-163 971.04,-163 587.53,-163 587.53,-163"/>
<polygon fill="black" stroke="black" points="587.53,-159.5 577.53,-163 587.53,-166.5 587.53,-159.5"/>
</g>
<!-- ContactComponent -->
<g id="node3" class="node">
<title>ContactComponent</title>
<polygon fill="#ffffb3" stroke="black" points="861.38,-122 736.62,-122 736.62,-86 861.38,-86 861.38,-122"/>
<text text-anchor="middle" x="799" y="-99.8" font-family="Times,serif" font-size="14.00">ContactComponent</text>
</g>
<!-- ContactComponent&#45;&gt;SharedModule -->
<g id="edge3" class="edge">
<title>ContactComponent&#45;&gt;SharedModule</title>
<path fill="none" stroke="black" d="M819.9,-122.01C819.9,-138.05 819.9,-159 819.9,-159 819.9,-159 587.52,-159 587.52,-159"/>
<polygon fill="black" stroke="black" points="587.52,-155.5 577.52,-159 587.52,-162.5 587.52,-155.5"/>
</g>
<!-- FooterComponent -->
<g id="node4" class="node">
<title>FooterComponent</title>
<polygon fill="#ffffb3" stroke="black" points="718.88,-122 601.12,-122 601.12,-86 718.88,-86 718.88,-122"/>
<text text-anchor="middle" x="660" y="-99.8" font-family="Times,serif" font-size="14.00">FooterComponent</text>
</g>
<!-- FooterComponent&#45;&gt;SharedModule -->
<g id="edge4" class="edge">
<title>FooterComponent&#45;&gt;SharedModule</title>
<path fill="none" stroke="black" d="M640.27,-122.12C640.27,-136.78 640.27,-155 640.27,-155 640.27,-155 587.24,-155 587.24,-155"/>
<polygon fill="black" stroke="black" points="587.24,-151.5 577.24,-155 587.24,-158.5 587.24,-151.5"/>
</g>
<!-- HeaderComponent -->
<g id="node5" class="node">
<title>HeaderComponent</title>
<polygon fill="#ffffb3" stroke="black" points="582.74,-122 461.26,-122 461.26,-86 582.74,-86 582.74,-122"/>
<text text-anchor="middle" x="522" y="-99.8" font-family="Times,serif" font-size="14.00">HeaderComponent</text>
</g>
<!-- HeaderComponent&#45;&gt;SharedModule -->
<g id="edge5" class="edge">
<title>HeaderComponent&#45;&gt;SharedModule</title>
<path fill="none" stroke="black" d="M528,-122.11C528,-122.11 528,-140.99 528,-140.99"/>
<polygon fill="black" stroke="black" points="524.5,-140.99 528,-150.99 531.5,-140.99 524.5,-140.99"/>
</g>
<!-- LoginComponent -->
<g id="node6" class="node">
<title>LoginComponent</title>
<polygon fill="#ffffb3" stroke="black" points="443.28,-122 328.72,-122 328.72,-86 443.28,-86 443.28,-122"/>
<text text-anchor="middle" x="386" y="-99.8" font-family="Times,serif" font-size="14.00">LoginComponent</text>
</g>
<!-- LoginComponent&#45;&gt;SharedModule -->
<g id="edge6" class="edge">
<title>LoginComponent&#45;&gt;SharedModule</title>
<path fill="none" stroke="black" d="M439.76,-122.24C439.76,-137.57 439.76,-157 439.76,-157 439.76,-157 468.72,-157 468.72,-157"/>
<polygon fill="black" stroke="black" points="468.72,-160.5 478.72,-157 468.72,-153.5 468.72,-160.5"/>
</g>
<!-- NavbarComponent -->
<g id="node7" class="node">
<title>NavbarComponent</title>
<polygon fill="#ffffb3" stroke="black" points="310.03,-122 187.97,-122 187.97,-86 310.03,-86 310.03,-122"/>
<text text-anchor="middle" x="249" y="-99.8" font-family="Times,serif" font-size="14.00">NavbarComponent</text>
</g>
<!-- NavbarComponent&#45;&gt;SharedModule -->
<g id="edge7" class="edge">
<title>NavbarComponent&#45;&gt;SharedModule</title>
<path fill="none" stroke="black" d="M305.14,-122.03C305.14,-139.06 305.14,-162 305.14,-162 305.14,-162 468.54,-162 468.54,-162"/>
<polygon fill="black" stroke="black" points="468.54,-165.5 478.54,-162 468.54,-158.5 468.54,-165.5"/>
</g>
<!-- RegisterComponent -->
<g id="node8" class="node">
<title>RegisterComponent</title>
<polygon fill="#ffffb3" stroke="black" points="169.98,-122 42.02,-122 42.02,-86 169.98,-86 169.98,-122"/>
<text text-anchor="middle" x="106" y="-99.8" font-family="Times,serif" font-size="14.00">RegisterComponent</text>
</g>
<!-- RegisterComponent&#45;&gt;SharedModule -->
<g id="edge8" class="edge">
<title>RegisterComponent&#45;&gt;SharedModule</title>
<path fill="none" stroke="black" d="M162.87,-122.22C162.87,-140.83 162.87,-167 162.87,-167 162.87,-167 468.76,-167 468.76,-167"/>
<polygon fill="black" stroke="black" points="468.76,-170.5 478.76,-167 468.76,-163.5 468.76,-170.5"/>
</g>
<!-- AboutComponent  -->
<g id="node10" class="node">
<title>AboutComponent </title>
<polygon fill="#fb8072" stroke="black" points="1160.83,-252 1041.17,-252 1041.17,-216 1160.83,-216 1160.83,-252"/>
<text text-anchor="middle" x="1101" y="-229.8" font-family="Times,serif" font-size="14.00">AboutComponent </text>
</g>
<!-- SharedModule&#45;&gt;AboutComponent  -->
<g id="edge9" class="edge">
<title>SharedModule&#45;&gt;AboutComponent </title>
<path fill="none" stroke="black" stroke-dasharray="5,2" d="M577.34,-171C715.31,-171 1095.12,-171 1095.12,-171 1095.12,-171 1095.12,-205.78 1095.12,-205.78"/>
<polygon fill="black" stroke="black" points="1091.63,-205.78 1095.12,-215.78 1098.63,-205.78 1091.63,-205.78"/>
</g>
<!-- CartViewComponent  -->
<g id="node11" class="node">
<title>CartViewComponent </title>
<polygon fill="#fb8072" stroke="black" points="1022.75,-252 883.25,-252 883.25,-216 1022.75,-216 1022.75,-252"/>
<text text-anchor="middle" x="953" y="-229.8" font-family="Times,serif" font-size="14.00">CartViewComponent </text>
</g>
<!-- SharedModule&#45;&gt;CartViewComponent  -->
<g id="edge10" class="edge">
<title>SharedModule&#45;&gt;CartViewComponent </title>
<path fill="none" stroke="black" stroke-dasharray="5,2" d="M577.35,-175C684.16,-175 927.21,-175 927.21,-175 927.21,-175 927.21,-205.98 927.21,-205.98"/>
<polygon fill="black" stroke="black" points="923.71,-205.98 927.21,-215.98 930.71,-205.98 923.71,-205.98"/>
</g>
<!-- ContactComponent  -->
<g id="node12" class="node">
<title>ContactComponent </title>
<polygon fill="#fb8072" stroke="black" points="865.38,-252 736.62,-252 736.62,-216 865.38,-216 865.38,-252"/>
<text text-anchor="middle" x="801" y="-229.8" font-family="Times,serif" font-size="14.00">ContactComponent </text>
</g>
<!-- SharedModule&#45;&gt;ContactComponent  -->
<g id="edge11" class="edge">
<title>SharedModule&#45;&gt;ContactComponent </title>
<path fill="none" stroke="black" stroke-dasharray="5,2" d="M577.46,-179C650.42,-179 778.35,-179 778.35,-179 778.35,-179 778.35,-205.99 778.35,-205.99"/>
<polygon fill="black" stroke="black" points="774.85,-205.99 778.35,-215.99 781.85,-205.99 774.85,-205.99"/>
</g>
<!-- FooterComponent  -->
<g id="node13" class="node">
<title>FooterComponent </title>
<polygon fill="#fb8072" stroke="black" points="718.88,-252 597.12,-252 597.12,-216 718.88,-216 718.88,-252"/>
<text text-anchor="middle" x="658" y="-229.8" font-family="Times,serif" font-size="14.00">FooterComponent </text>
</g>
<!-- SharedModule&#45;&gt;FooterComponent  -->
<g id="edge12" class="edge">
<title>SharedModule&#45;&gt;FooterComponent </title>
<path fill="none" stroke="black" stroke-dasharray="5,2" d="M577.6,-183C621.78,-183 679.48,-183 679.48,-183 679.48,-183 679.48,-205.88 679.48,-205.88"/>
<polygon fill="black" stroke="black" points="675.98,-205.88 679.48,-215.88 682.98,-205.88 675.98,-205.88"/>
</g>
<!-- HeaderComponent  -->
<g id="node14" class="node">
<title>HeaderComponent </title>
<polygon fill="#fb8072" stroke="black" points="579.74,-252 454.26,-252 454.26,-216 579.74,-216 579.74,-252"/>
<text text-anchor="middle" x="517" y="-229.8" font-family="Times,serif" font-size="14.00">HeaderComponent </text>
</g>
<!-- SharedModule&#45;&gt;HeaderComponent  -->
<g id="edge13" class="edge">
<title>SharedModule&#45;&gt;HeaderComponent </title>
<path fill="none" stroke="black" stroke-dasharray="5,2" d="M528,-187.11C528,-187.11 528,-205.99 528,-205.99"/>
<polygon fill="black" stroke="black" points="524.5,-205.99 528,-215.99 531.5,-205.99 524.5,-205.99"/>
</g>
<!-- LoginComponent  -->
<g id="node15" class="node">
<title>LoginComponent </title>
<polygon fill="#fb8072" stroke="black" points="436.28,-252 317.72,-252 317.72,-216 436.28,-216 436.28,-252"/>
<text text-anchor="middle" x="377" y="-229.8" font-family="Times,serif" font-size="14.00">LoginComponent </text>
</g>
<!-- SharedModule&#45;&gt;LoginComponent  -->
<g id="edge14" class="edge">
<title>SharedModule&#45;&gt;LoginComponent </title>
<path fill="none" stroke="black" stroke-dasharray="5,2" d="M478.7,-182C436.45,-182 382.38,-182 382.38,-182 382.38,-182 382.38,-205.81 382.38,-205.81"/>
<polygon fill="black" stroke="black" points="378.88,-205.81 382.38,-215.81 385.88,-205.81 378.88,-205.81"/>
</g>
<!-- NavbarComponent  -->
<g id="node16" class="node">
<title>NavbarComponent </title>
<polygon fill="#fb8072" stroke="black" points="300.03,-252 173.97,-252 173.97,-216 300.03,-216 300.03,-252"/>
<text text-anchor="middle" x="237" y="-229.8" font-family="Times,serif" font-size="14.00">NavbarComponent </text>
</g>
<!-- SharedModule&#45;&gt;NavbarComponent  -->
<g id="edge15" class="edge">
<title>SharedModule&#45;&gt;NavbarComponent </title>
<path fill="none" stroke="black" stroke-dasharray="5,2" d="M478.51,-177C397.11,-177 243.88,-177 243.88,-177 243.88,-177 243.88,-205.96 243.88,-205.96"/>
<polygon fill="black" stroke="black" points="240.38,-205.96 243.88,-215.96 247.38,-205.96 240.38,-205.96"/>
</g>
<!-- RegisterComponent  -->
<g id="node17" class="node">
<title>RegisterComponent </title>
<polygon fill="#fb8072" stroke="black" points="155.99,-252 24.01,-252 24.01,-216 155.99,-216 155.99,-252"/>
<text text-anchor="middle" x="90" y="-229.8" font-family="Times,serif" font-size="14.00">RegisterComponent </text>
</g>
<!-- SharedModule&#45;&gt;RegisterComponent  -->
<g id="edge16" class="edge">
<title>SharedModule&#45;&gt;RegisterComponent </title>
<path fill="none" stroke="black" stroke-dasharray="5,2" d="M478.77,-172C366.06,-172 98.88,-172 98.88,-172 98.88,-172 98.88,-205.73 98.88,-205.73"/>
<polygon fill="black" stroke="black" points="95.38,-205.73 98.88,-215.73 102.38,-205.73 95.38,-205.73"/>
</g>
</g>
</svg>
