<?xml version="1.0" encoding="UTF-8" standalone="no"?>
<!DOCTYPE svg PUBLIC "-//W3C//DTD SVG 1.1//EN"
 "http://www.w3.org/Graphics/SVG/1.1/DTD/svg11.dtd">
<!-- Generated by graphviz version 2.47.0 (20210316.0004)
 -->
<!-- Title: dependencies Pages: 1 -->
<svg width="534pt" height="284pt"
 viewBox="0.00 0.00 534.00 284.00" xmlns="http://www.w3.org/2000/svg" xmlns:xlink="http://www.w3.org/1999/xlink">
<g id="graph0" class="graph" transform="scale(1 1) rotate(0) translate(4 280)">
<title>dependencies</title>
<polygon fill="white" stroke="transparent" points="-4,4 -4,-280 530,-280 530,4 -4,4"/>
<text text-anchor="start" x="242.01" y="-42.4" font-family="Times-12" font-weight="bold" font-size="14.00">Legend</text>
<polygon fill="#ffffb3" stroke="transparent" points="29,-10 29,-30 49,-30 49,-10 29,-10"/>
<text text-anchor="start" x="52.63" y="-15.4" font-family="Times-12" font-size="14.00"> &#160;Declarations</text>
<polygon fill="#8dd3c7" stroke="transparent" points="142,-10 142,-30 162,-30 162,-10 142,-10"/>
<text text-anchor="start" x="165.73" y="-15.4" font-family="Times-12" font-size="14.00"> &#160;Module</text>
<polygon fill="#80b1d3" stroke="transparent" points="228,-10 228,-30 248,-30 248,-10 228,-10"/>
<text text-anchor="start" x="251.78" y="-15.4" font-family="Times-12" font-size="14.00"> &#160;Bootstrap</text>
<polygon fill="#fdb462" stroke="transparent" points="325,-10 325,-30 345,-30 345,-10 325,-10"/>
<text text-anchor="start" x="348.67" y="-15.4" font-family="Times-12" font-size="14.00"> &#160;Providers</text>
<polygon fill="#fb8072" stroke="transparent" points="421,-10 421,-30 441,-30 441,-10 421,-10"/>
<text text-anchor="start" x="444.73" y="-15.4" font-family="Times-12" font-size="14.00"> &#160;Exports</text>
<g id="clust1" class="cluster">
<title>cluster_SneakersModule</title>
<polygon fill="none" stroke="black" stroke-dasharray="1,5" points="8,-70 8,-268 518,-268 518,-70 8,-70"/>
</g>
<g id="clust2" class="cluster">
<title>cluster_SneakersModule_declarations</title>
<polygon fill="none" stroke="black" points="340,-78 340,-130 510,-130 510,-78 340,-78"/>
</g>
<g id="clust4" class="cluster">
<title>cluster_SneakersModule_imports</title>
<polygon fill="none" stroke="black" points="218,-78 218,-130 332,-130 332,-78 218,-78"/>
</g>
<g id="clust5" class="cluster">
<title>cluster_SneakersModule_exports</title>
<polygon fill="none" stroke="black" points="188,-208 188,-260 362,-260 362,-208 188,-208"/>
</g>
<g id="clust7" class="cluster">
<title>cluster_SneakersModule_providers</title>
<polygon fill="none" stroke="black" points="16,-78 16,-130 210,-130 210,-78 16,-78"/>
</g>
<!-- SneakersListComponent -->
<g id="node1" class="node">
<title>SneakersListComponent</title>
<polygon fill="#ffffb3" stroke="black" points="501.64,-122 348.36,-122 348.36,-86 501.64,-86 501.64,-122"/>
<text text-anchor="middle" x="425" y="-99.8" font-family="Times,serif" font-size="14.00">SneakersListComponent</text>
</g>
<!-- SneakersModule -->
<g id="node2" class="node">
<title>SneakersModule</title>
<polygon fill="#8dd3c7" stroke="black" points="330.08,-187 327.08,-191 306.08,-191 303.08,-187 219.92,-187 219.92,-151 330.08,-151 330.08,-187"/>
<text text-anchor="middle" x="275" y="-164.8" font-family="Times,serif" font-size="14.00">SneakersModule</text>
</g>
<!-- SneakersListComponent&#45;&gt;SneakersModule -->
<g id="edge1" class="edge">
<title>SneakersListComponent&#45;&gt;SneakersModule</title>
<path fill="none" stroke="black" d="M427.7,-122.11C427.7,-141.34 427.7,-169 427.7,-169 427.7,-169 340.13,-169 340.13,-169"/>
<polygon fill="black" stroke="black" points="340.13,-165.5 330.13,-169 340.13,-172.5 340.13,-165.5"/>
</g>
<!-- SneakersListComponent  -->
<g id="node4" class="node">
<title>SneakersListComponent </title>
<polygon fill="#fb8072" stroke="black" points="353.64,-252 196.36,-252 196.36,-216 353.64,-216 353.64,-252"/>
<text text-anchor="middle" x="275" y="-229.8" font-family="Times,serif" font-size="14.00">SneakersListComponent </text>
</g>
<!-- SneakersModule&#45;&gt;SneakersListComponent  -->
<g id="edge3" class="edge">
<title>SneakersModule&#45;&gt;SneakersListComponent </title>
<path fill="none" stroke="black" stroke-dasharray="5,2" d="M275,-187.11C275,-187.11 275,-205.99 275,-205.99"/>
<polygon fill="black" stroke="black" points="271.5,-205.99 275,-215.99 278.5,-205.99 271.5,-205.99"/>
</g>
<!-- SharedModule -->
<g id="node3" class="node">
<title>SharedModule</title>
<polygon fill="#8dd3c7" stroke="black" points="324.42,-122 321.42,-126 300.42,-126 297.42,-122 225.58,-122 225.58,-86 324.42,-86 324.42,-122"/>
<text text-anchor="middle" x="275" y="-99.8" font-family="Times,serif" font-size="14.00">SharedModule</text>
</g>
<!-- SharedModule&#45;&gt;SneakersModule -->
<g id="edge2" class="edge">
<title>SharedModule&#45;&gt;SneakersModule</title>
<path fill="none" stroke="black" d="M275,-122.11C275,-122.11 275,-140.99 275,-140.99"/>
<polygon fill="black" stroke="black" points="271.5,-140.99 275,-150.99 278.5,-140.99 271.5,-140.99"/>
</g>
<!-- SneakersApiService -->
<g id="node5" class="node">
<title>SneakersApiService</title>
<ellipse fill="#fdb462" stroke="black" cx="113" cy="-104" rx="89.16" ry="18"/>
<text text-anchor="middle" x="113" y="-99.8" font-family="Times,serif" font-size="14.00">SneakersApiService</text>
</g>
<!-- SneakersApiService&#45;&gt;SneakersModule -->
<g id="edge4" class="edge">
<title>SneakersApiService&#45;&gt;SneakersModule</title>
<path fill="none" stroke="black" d="M110.05,-122.11C110.05,-141.34 110.05,-169 110.05,-169 110.05,-169 209.61,-169 209.61,-169"/>
<polygon fill="black" stroke="black" points="209.61,-172.5 219.61,-169 209.61,-165.5 209.61,-172.5"/>
</g>
</g>
</svg>
